<?xml version="1.0" standalone="no"?>
<!DOCTYPE svg PUBLIC "-//W3C//DTD SVG 20010904//EN"
 "http://www.w3.org/TR/2001/REC-SVG-20010904/DTD/svg10.dtd">
<svg version="1.0" xmlns="http://www.w3.org/2000/svg"
 width="700.000000pt" height="700.000000pt" viewBox="0 0 700.000000 700.000000"
 preserveAspectRatio="xMidYMid meet">
<metadata>
Created by potrace 1.14, written by Peter Selinger 2001-2017
</metadata>
<g transform="translate(0.000000,700.000000) scale(0.100000,-0.100000)"
fill="#000000" stroke="none">
<path d="M3770 5611 c-79 -26 -146 -88 -174 -162 -13 -36 -81 -345 -91 -414
-2 -11 -19 -96 -39 -190 -19 -93 -41 -195 -46 -225 -6 -30 -13 -64 -16 -75
-26 -125 -126 -613 -140 -682 -2 -12 -24 -118 -49 -235 -24 -117 -46 -224 -48
-238 -3 -14 -24 -115 -47 -225 -40 -194 -45 -220 -54 -267 -2 -13 -9 -43 -15
-68 -5 -25 -12 -56 -14 -70 -3 -14 -8 -36 -11 -50 -3 -14 -8 -36 -10 -50 -2
-14 -7 -36 -10 -50 -3 -14 -8 -36 -10 -50 -2 -14 -46 -223 -96 -465 -99 -476
-102 -503 -60 -586 25 -48 75 -101 118 -123 125 -65 293 -14 362 109 18 31 51
161 74 291 4 22 31 154 40 199 28 130 58 275 62 295 3 14 23 113 45 220 75
363 120 585 125 605 2 11 15 76 30 145 14 69 28 139 31 155 4 26 28 142 38
185 5 21 33 160 39 190 5 26 22 109 30 145 2 11 29 142 59 290 60 290 58 282
81 395 9 41 18 86 21 100 3 14 8 41 12 60 4 19 8 37 8 40 1 5 14 65 21 100 1
8 10 48 18 87 9 40 18 85 21 100 2 16 12 60 20 98 27 121 29 190 10 243 -42
111 -125 173 -240 178 -38 2 -81 0 -95 -5z"/>
<path d="M5239 5189 c-86 -13 -169 -72 -204 -145 -19 -40 -35 -120 -29 -148
11 -61 18 -82 35 -110 10 -17 301 -314 646 -659 l627 -628 -632 -632 c-693
-694 -675 -673 -675 -792 0 -181 173 -309 348 -258 28 8 64 25 80 38 70 53
1490 1486 1508 1521 28 55 34 149 12 215 -16 51 -55 92 -754 792 -405 407
-754 750 -775 764 -52 33 -129 51 -187 42z"/>
<path d="M1641 5170 c-60 -28 -1517 -1483 -1552 -1550 -28 -56 -34 -151 -12
-218 14 -42 94 -126 761 -794 531 -531 760 -754 795 -773 92 -51 217 -34 304
39 41 34 81 117 87 178 6 54 -16 140 -46 178 -10 14 -298 305 -640 646 l-620
622 629 629 c481 481 635 641 653 678 62 129 2 298 -130 362 -54 26 -174 28
-229 3z"/>
</g>
</svg>
